<svg width="80" height="80" viewBox="0 0 80 80" fill="none" xmlns="http://www.w3.org/2000/svg">
  <path fill-rule="evenodd" clip-rule="evenodd" d="M60 33.625L40 17.625L20 33.625L20 61.625L60 61.625L60 33.625Z" fill="#2a3a8e" />
  <path d="M60 33.625H62C62 33.0174 61.7238 32.4428 61.2494 32.0633L60 33.625ZM40 17.625L41.2494 16.0633C40.519 15.4789 39.481 15.4789 38.7506 16.0633L40 17.625ZM20 33.625L18.7506 32.0633C18.2762 32.4428 18 33.0174 18 33.625H20ZM20 61.625H18C18 62.7296 18.8954 63.625 20 63.625V61.625ZM60 61.625V63.625C60.5304 63.625 61.0391 63.4143 61.4142 63.0392C61.7893 62.6641 62 62.1554 62 61.625H60Z" fill="#2a3a8e" />
  <path d="M67.5 39.625L64.5 37.225L40 17.625L15.5 37.225L12.5 39.625" stroke="#e72428" stroke-width="4" stroke-linecap="round" stroke-linejoin="round"/>
  <path fill-rule="evenodd" clip-rule="evenodd" d="M55 29.625V18.625H49V24.825L55 29.625Z" fill="#e72428"/>
  <path fill-rule="evenodd" clip-rule="evenodd" d="M34.076 61.625H43.0343L40.6201 52.3379H40.9542H42.1425H43.6003H48.3264L37.7419 31.6998L38.2308 33.9929L40.9323 46.6624L39.1447 46.6624L37.7788 46.6624L31.9206 46.6624L34.076 61.625Z" fill="#f3e81f"/>
</svg>
