<svg width="80" height="80" viewBox="0 0 80 80" fill="none" xmlns="http://www.w3.org/2000/svg">
  <path fill-rule="evenodd" clip-rule="evenodd" d="M30 14C31.6569 14 33 15.3431 33 17V25C33 26.1046 32.1046 27 31 27H29C27.8954 27 27 26.1046 27 25V17C27 15.3431 28.3431 14 30 14ZM51 27C52.1046 27 53 26.1046 53 25V17C53 15.3431 51.6569 14 50 14C48.3431 14 47 15.3431 47 17V25C47 26.1046 47.8954 27 49 27H51Z" fill="#f3e81f"/>
  <path d="M35 17C35 14.2386 32.7614 12 30 12V16C30.5523 16 31 16.4477 31 17H35ZM35 25V17H31V25H35ZM31 25H29L29 29H31L31 25ZM25 17V25H29V17H25ZM30 12C27.2386 12 25 14.2386 25 17H29C29 16.4477 29.4477 16 30 16V12ZM55 25V17H51V25L55 25ZM55 17C55 14.2386 52.7614 12 50 12V16C50.5523 16 51 16.4477 51 17H55ZM50 12C47.2386 12 45 14.2386 45 17H49C49 16.4477 49.4477 16 50 16V12ZM45 17V25H49V17H45ZM51 25H49V29H51V25ZM45 25C45 27.2091 46.7909 29 49 29V25H45ZM51 25V29C53.2091 29 55 27.2091 55 25L51 25ZM29 25H29H25C25 27.2091 26.7909 29 29 29L29 25ZM31 25L31 29C33.2091 29 35 27.2091 35 25H31Z" fill="#f3e81f"/>
  <path d="M40 53V63" stroke="#e72428" stroke-width="4" stroke-linecap="round" stroke-linejoin="round"/>
  <path fill-rule="evenodd" clip-rule="evenodd" d="M58.3409 35C59.2572 35 60 34.2572 60 33.3409V29C60 27.8954 59.1046 27 58 27H54.6059L25.3941 27H22C20.8954 27 20 27.8954 20 29V33.3409C20 34.2572 20.7428 35 21.6591 35C22.5754 35 23.3094 35.7448 23.4042 36.6562C23.5626 38.1784 23.9399 39.6833 24.5362 41.1229L24.7359 41.605C26.3598 45.5254 29.4746 48.6402 33.395 50.2641L33.8771 50.4638C37.7975 52.0877 42.2025 52.0877 46.1229 50.4638L46.605 50.2641C50.5254 48.6402 53.6402 45.5254 55.2641 41.605L55.4638 41.1229C56.0601 39.6833 56.4374 38.1784 56.5958 36.6562C56.6906 35.7448 57.4245 35 58.3409 35Z" fill="#2a3a8e"/>
</svg>
