<!DOCTYPE svg PUBLIC "-//W3C//DTD SVG 1.1//EN" "http://www.w3.org/Graphics/SVG/1.1/DTD/svg11.dtd">
<!-- Uploaded to: SVG Repo, www.svgrepo.com, Transformed by: SVG Repo Mixer Tools -->
<svg version="1.1" id="Layer_1" xmlns="http://www.w3.org/2000/svg" xmlns:xlink="http://www.w3.org/1999/xlink" viewBox="0 0 495 495" xml:space="preserve" width="800px" height="800px" fill="#000000">
<g id="SVGRepo_bgCarrier" stroke-width="0"/>
<g id="SVGRepo_tracerCarrier" stroke-linecap="round" stroke-linejoin="round"/>
<g id="SVGRepo_iconCarrier"> <g> <path style="fill:#96C8EF;" d="M495,151.748V78.652L314.687,0H247.5v40h43.015v71.748H247.5v40h48.041l14.005,47.718L247.5,267.05 v59.146L365.748,455h60.484l-89.004-303.252H495z M330.515,50.544L455,104.844v6.904H330.515V50.544z M367.861,398.155 L274.65,296.624l48.05-52.339L367.861,398.155z"/> <path style="fill:#B3D8F4;" d="M247.5,326.197V267.05l-62.046-67.584l14.005-47.718H247.5v-40h-43.015V40H247.5V0h-67.187L0,78.652 v73.096h157.772L68.768,455h60.484L247.5,326.197z M40,111.748v-6.904l124.485-54.3v61.204H40z M172.3,244.284l48.05,52.339 l-93.211,101.531L172.3,244.284z"/> <rect y="455" style="fill:#FF5023;" width="495" height="40"/> </g> </g>
</svg>