<svg viewBox="0 0 14 14" xmlns="http://www.w3.org/2000/svg">
  <g transform="matrix(.31526 0 0 .31526 -.566244 -.556187)">
    <g fill="#2a3a8e">
      <path d="m23.99899915 4.93619943 7.9891 7.9891-7.9891 7.9891-7.9891-7.9891z"/>
      <path d="m18 7h12v12h-12z"/>
    </g>
    <circle cx="24" cy="13" fill="#f3e81f" r="4"/>
    <path d="m8.6 24.5-3.6 14.5h38l-3.6-14.5c-.2-.9-1-1.5-1.9-1.5h-26.9c-1 0-1.8.6-2 1.5z" fill="#e72428"/>
    <path d="m5 41v-2h38v2c0 1.1-.9 2-2 2h-34c-1.1 0-2-.9-2-2z" fill="#e72428"/>
    <path d="m18 25h-7l-1 4h7.6zm10 0h-8l-.3 4h8.6zm9 0h-7l.4 4h7.6zm-29 12h8.7l.6-6h-7.8zm23.3 0h8.7l-1.5-6h-7.8zm-12.2 0h9.8l-.4-6h-9z" fill="#ffffff"/>
  </g>
</svg>
