<!DOCTYPE svg PUBLIC "-//W3C//DTD SVG 1.1//EN" "http://www.w3.org/Graphics/SVG/1.1/DTD/svg11.dtd">
<!-- Uploaded to: SVG Repo, www.svgrepo.com, Transformed by: SVG Repo Mixer Tools -->
<svg height="800px" width="800px" version="1.1" id="Layer_1" xmlns="http://www.w3.org/2000/svg" xmlns:xlink="http://www.w3.org/1999/xlink" viewBox="0 0 502 502" xml:space="preserve" fill="#000000">
<g id="SVGRepo_bgCarrier" stroke-width="0"/>
<g id="SVGRepo_tracerCarrier" stroke-linecap="round" stroke-linejoin="round"/>
<g id="SVGRepo_iconCarrier"> <g> <path style="fill:#4FC497;" d="M483.786,250.999c0-0.692-0.02-1.379-0.026-2.07c-0.691-0.006-1.378-0.026-2.07-0.026 c-130.833,0-236.893,106.061-236.893,236.893c0,0.692,0.02,1.379,0.026,2.07c0.691,0.006,1.378,0.026,2.07,0.026 C377.726,487.892,483.786,381.832,483.786,250.999z"/> <path style="fill:#f3e81f ;" d="M477.52,88.431l-56.37,56.37l-16.118-16.118c-13.091-13.091-13.091-34.315,0-47.406l8.964-8.964 c13.091-13.091,34.315-13.091,47.406,0L477.52,88.431z"/> <g> <path style="fill:#333333;" d="M363.836,56.526c4.891,2.949,9.725,6.118,14.368,9.42c1.758,1.25,3.781,1.852,5.786,1.852 c3.128,0,6.208-1.463,8.158-4.206c3.201-4.501,2.146-10.744-2.354-13.944c-5.052-3.593-10.311-7.04-15.63-10.248 c-4.733-2.854-10.875-1.328-13.728,3.399C357.585,47.528,359.106,53.675,363.836,56.526z"/> <path style="fill:#333333;" d="M246.894,497.893c65.947,0,127.947-25.682,174.579-72.313 c46.632-46.633,72.313-108.633,72.313-174.58c-0.075-7.789-4.308-12.021-12.097-12.097c-65.947,0-127.947,25.682-174.579,72.313 c-44.682,44.682-70.113,103.477-72.162,166.333C115.533,471.297,20,371.694,20,250.999C20,125.89,121.784,24.106,246.894,24.106 c30.009,0,59.161,5.764,86.646,17.132c5.104,2.109,10.952-0.315,13.063-5.419c2.11-5.104-0.315-10.952-5.419-13.063 c-29.922-12.375-61.646-18.649-94.291-18.649c-65.947,0-127.948,25.682-174.58,72.313S0,185.052,0,250.999 c0,65.57,25.431,127.315,71.608,173.861c46.148,46.517,107.633,72.443,173.129,73.006h0.001L246.894,497.893z M268.974,476.81 l76.185-76.185c3.905-3.905,3.905-10.237,0-14.143c-3.906-3.904-10.236-3.904-14.143,0l-74.913,74.913 c11.933-111.052,104.325-198.383,217.543-202.353C469.649,373.047,381.125,465.922,268.974,476.81z"/> <path style="fill:#333333;" d="M367.437,374.204c2.56,0,5.118-0.977,7.071-2.929l16.247-16.247c3.905-3.905,3.905-10.237,0-14.143 c-3.906-3.904-10.236-3.904-14.143,0l-16.247,16.247c-3.905,3.905-3.905,10.237,0,14.143 C362.318,373.228,364.877,374.204,367.437,374.204z"/> <path style="fill:#333333;" d="M499.071,118.595l-18.787-18.786l4.307-4.307c1.875-1.876,2.929-4.419,2.929-7.071 s-1.054-5.196-2.929-7.071l-16.118-16.117c-8.221-8.22-19.149-12.747-30.774-12.747s-22.554,4.527-30.774,12.747l-8.964,8.964 c-8.22,8.221-12.747,19.149-12.747,30.774s4.527,22.554,12.747,30.774l16.118,16.117c1.953,1.952,4.512,2.929,7.071,2.929 s5.118-0.977,7.071-2.929l4.306-4.306l18.787,18.787c1.953,1.952,4.512,2.929,7.071,2.929s5.118-0.977,7.071-2.929 c3.905-3.905,3.905-10.237,0-14.143l-18.787-18.787l19.472-19.472l18.787,18.786c1.953,1.952,4.512,2.929,7.071,2.929 s5.118-0.977,7.071-2.929C502.977,128.832,502.977,122.5,499.071,118.595z M412.103,121.612c-4.442-4.442-6.89-10.349-6.89-16.632 s2.447-12.189,6.89-16.632l8.964-8.964c4.442-4.442,10.349-6.89,16.632-6.89s12.189,2.447,16.632,6.89l9.047,9.046l-42.228,42.229 L412.103,121.612z"/> </g> </g> </g>
</svg>